<svg width="12" height="14" viewBox="0 0 12 14" fill="none" xmlns="http://www.w3.org/2000/svg">
<path d="M1.33333 13.6666C0.966667 13.6666 0.652667 13.5361 0.391333 13.2753C0.130444 13.0139 0 12.6999 0 12.3333V2.99992C0 2.63325 0.130444 2.31947 0.391333 2.05859C0.652667 1.79725 0.966667 1.66659 1.33333 1.66659H2V0.333252H3.33333V1.66659H8.66667V0.333252H10V1.66659H10.6667C11.0333 1.66659 11.3473 1.79725 11.6087 2.05859C11.8696 2.31947 12 2.63325 12 2.99992V12.3333C12 12.6999 11.8696 13.0139 11.6087 13.2753C11.3473 13.5361 11.0333 13.6666 10.6667 13.6666H1.33333ZM1.33333 12.3333H10.6667V5.66658H1.33333V12.3333ZM1.33333 4.33325H10.6667V2.99992H1.33333V4.33325ZM6 8.33325C5.81111 8.33325 5.65289 8.26925 5.52533 8.14125C5.39733 8.0137 5.33333 7.85547 5.33333 7.66658C5.33333 7.4777 5.39733 7.31925 5.52533 7.19125C5.65289 7.0637 5.81111 6.99992 6 6.99992C6.18889 6.99992 6.34733 7.0637 6.47533 7.19125C6.60289 7.31925 6.66667 7.4777 6.66667 7.66658C6.66667 7.85547 6.60289 8.0137 6.47533 8.14125C6.34733 8.26925 6.18889 8.33325 6 8.33325ZM3.33333 8.33325C3.14444 8.33325 2.986 8.26925 2.858 8.14125C2.73044 8.0137 2.66667 7.85547 2.66667 7.66658C2.66667 7.4777 2.73044 7.31925 2.858 7.19125C2.986 7.0637 3.14444 6.99992 3.33333 6.99992C3.52222 6.99992 3.68067 7.0637 3.80867 7.19125C3.93622 7.31925 4 7.4777 4 7.66658C4 7.85547 3.93622 8.0137 3.80867 8.14125C3.68067 8.26925 3.52222 8.33325 3.33333 8.33325ZM8.66667 8.33325C8.47778 8.33325 8.31956 8.26925 8.192 8.14125C8.064 8.0137 8 7.85547 8 7.66658C8 7.4777 8.064 7.31925 8.192 7.19125C8.31956 7.0637 8.47778 6.99992 8.66667 6.99992C8.85556 6.99992 9.01378 7.0637 9.14133 7.19125C9.26933 7.31925 9.33333 7.4777 9.33333 7.66658C9.33333 7.85547 9.26933 8.0137 9.14133 8.14125C9.01378 8.26925 8.85556 8.33325 8.66667 8.33325ZM6 10.9999C5.81111 10.9999 5.65289 10.9359 5.52533 10.8079C5.39733 10.6804 5.33333 10.5221 5.33333 10.3333C5.33333 10.1444 5.39733 9.98614 5.52533 9.85858C5.65289 9.73059 5.81111 9.66658 6 9.66658C6.18889 9.66658 6.34733 9.73059 6.47533 9.85858C6.60289 9.98614 6.66667 10.1444 6.66667 10.3333C6.66667 10.5221 6.60289 10.6804 6.47533 10.8079C6.34733 10.9359 6.18889 10.9999 6 10.9999ZM3.33333 10.9999C3.14444 10.9999 2.986 10.9359 2.858 10.8079C2.73044 10.6804 2.66667 10.5221 2.66667 10.3333C2.66667 10.1444 2.73044 9.98614 2.858 9.85858C2.986 9.73059 3.14444 9.66658 3.33333 9.66658C3.52222 9.66658 3.68067 9.73059 3.80867 9.85858C3.93622 9.98614 4 10.1444 4 10.3333C4 10.5221 3.93622 10.6804 3.80867 10.8079C3.68067 10.9359 3.52222 10.9999 3.33333 10.9999ZM8.66667 10.9999C8.47778 10.9999 8.31956 10.9359 8.192 10.8079C8.064 10.6804 8 10.5221 8 10.3333C8 10.1444 8.064 9.98614 8.192 9.85858C8.31956 9.73059 8.47778 9.66658 8.66667 9.66658C8.85556 9.66658 9.01378 9.73059 9.14133 9.85858C9.26933 9.98614 9.33333 10.1444 9.33333 10.3333C9.33333 10.5221 9.26933 10.6804 9.14133 10.8079C9.01378 10.9359 8.85556 10.9999 8.66667 10.9999Z" fill="#1C1B1F"/>
</svg>
