<svg width="14" height="14" viewBox="0 0 14 14" fill="none" xmlns="http://www.w3.org/2000/svg">
<path d="M9.20003 10.1333L6.33337 7.26667V3.66667H7.6667V6.73334L10.1334 9.2L9.20003 10.1333ZM0.900032 9.71667C0.755588 9.39445 0.638921 9.06111 0.550033 8.71667C0.461144 8.37222 0.400033 8.02222 0.366699 7.66667H1.7167C1.75003 7.9 1.79714 8.13334 1.85803 8.36667C1.91937 8.6 1.99448 8.82778 2.08337 9.05L0.900032 9.71667ZM0.366699 6.33333C0.400033 5.97778 0.461144 5.62489 0.550033 5.27467C0.638921 4.92489 0.761144 4.58889 0.916699 4.26667L2.08337 4.93333C1.99448 5.15556 1.91937 5.38334 1.85803 5.61667C1.79714 5.85 1.75003 6.08889 1.7167 6.33333H0.366699ZM3.1167 12.4333C2.8167 12.2111 2.53892 11.9693 2.28337 11.708C2.02781 11.4471 1.78892 11.1667 1.5667 10.8667L2.73337 10.2C2.88892 10.4 3.05292 10.586 3.22537 10.758C3.39737 10.9304 3.58337 11.0944 3.78337 11.25L3.1167 12.4333ZM2.75003 3.78334L1.5667 3.11667C1.78892 2.81667 2.02781 2.53889 2.28337 2.28334C2.53892 2.02778 2.8167 1.78889 3.1167 1.56667L3.78337 2.75C3.59448 2.90556 3.41403 3.06934 3.24203 3.24134C3.06959 3.41378 2.90559 3.59445 2.75003 3.78334ZM6.33337 13.6333C5.97781 13.6 5.62514 13.5389 5.27537 13.45C4.92514 13.3611 4.58892 13.2389 4.2667 13.0833L4.93337 11.9167C5.15559 12.0056 5.38337 12.0804 5.6167 12.1413C5.85003 12.2027 6.08892 12.25 6.33337 12.2833V13.6333ZM4.93337 2.08334L4.2667 0.916669C4.58892 0.761113 4.92514 0.638891 5.27537 0.550002C5.62514 0.461113 5.97781 0.400002 6.33337 0.366669V1.71667C6.08892 1.75 5.85003 1.79711 5.6167 1.858C5.38337 1.91934 5.15559 1.99445 4.93337 2.08334ZM7.6667 13.6333V12.2833C7.91114 12.25 8.15003 12.2027 8.38336 12.1413C8.6167 12.0804 8.84448 12.0056 9.0667 11.9167L9.73337 13.0833C9.41114 13.2389 9.07514 13.3611 8.72537 13.45C8.37514 13.5389 8.02225 13.6 7.6667 13.6333ZM9.0667 2.08334C8.84448 1.99445 8.6167 1.91934 8.38336 1.858C8.15003 1.79711 7.91114 1.75 7.6667 1.71667V0.366669C8.02225 0.400002 8.37514 0.461113 8.72537 0.550002C9.07514 0.638891 9.41114 0.761113 9.73337 0.916669L9.0667 2.08334ZM10.8834 12.4333L10.2167 11.25C10.4056 11.0944 10.5863 10.9304 10.7587 10.758C10.9307 10.586 11.0945 10.4056 11.25 10.2167L12.4334 10.8833C12.2111 11.1833 11.9723 11.4638 11.7167 11.7247C11.4611 11.986 11.1834 12.2222 10.8834 12.4333ZM11.25 3.78334C11.0945 3.59445 10.9307 3.41378 10.7587 3.24134C10.5863 3.06934 10.4056 2.90556 10.2167 2.75L10.8834 1.56667C11.1834 1.77778 11.4611 2.01111 11.7167 2.26667C11.9723 2.52222 12.2056 2.8 12.4167 3.1L11.25 3.78334ZM12.2834 6.33333C12.25 6.08889 12.2029 5.85 12.142 5.61667C12.0807 5.38334 12.0056 5.15556 11.9167 4.93333L13.0834 4.25C13.2278 4.58333 13.3474 4.92489 13.442 5.27467C13.5363 5.62489 13.6 5.97778 13.6334 6.33333H12.2834ZM13.0834 9.73333L11.9167 9.06667C12.0056 8.84445 12.0807 8.61667 12.142 8.38333C12.2029 8.15 12.25 7.91111 12.2834 7.66667H13.6334C13.6 8.02222 13.5389 8.37489 13.45 8.72467C13.3611 9.07489 13.2389 9.41111 13.0834 9.73333Z" fill="#1C1B1F"/>
</svg>
