<svg width="16" height="14" viewBox="0 0 16 14" fill="none" xmlns="http://www.w3.org/2000/svg">
<path d="M8.73335 13.3333H7.00002L7.33335 13.1253C7.55558 12.9862 7.79735 12.8307 8.05869 12.6587C8.31958 12.4862 8.56113 12.3307 8.78335 12.192L9.11669 11.9833C10.0167 11.9167 10.8474 11.6444 11.6087 11.1667C12.3696 10.6889 12.9722 10.05 13.4167 9.25C12.4611 9.16111 11.5556 8.91955 10.7 8.52533C9.84446 8.13067 9.0778 7.59444 8.40002 6.91667C7.72224 6.23889 7.18335 5.47222 6.78335 4.61667C6.38335 3.76111 6.14446 2.85556 6.06669 1.9C5.21113 2.37778 4.5418 3.036 4.05869 3.87467C3.57513 4.71378 3.33335 5.62222 3.33335 6.6V6.8L3.13335 6.89133C3.00002 6.95267 2.85291 7.01667 2.69202 7.08333C2.53069 7.15 2.38335 7.21378 2.25002 7.27467L2.05002 7.36667C2.0278 7.24444 2.01402 7.11667 2.00869 6.98333C2.00291 6.85 2.00002 6.72222 2.00002 6.6C2.00002 4.97778 2.51669 3.54711 3.55002 2.308C4.58335 1.06933 5.90002 0.3 7.50002 0C7.30002 1.1 7.36113 2.17489 7.68335 3.22467C8.00558 4.27489 8.56113 5.19444 9.35002 5.98333C10.1389 6.77222 11.0585 7.32778 12.1087 7.65C13.1585 7.97222 14.2334 8.03333 15.3334 7.83333C15.0445 9.43333 14.2778 10.75 13.0334 11.7833C11.7889 12.8167 10.3556 13.3333 8.73335 13.3333ZM4.00002 12H7.00002C7.2778 12 7.5138 11.9027 7.70802 11.708C7.90269 11.5138 8.00002 11.2778 8.00002 11C8.00002 10.7222 7.90558 10.4862 7.71669 10.292C7.5278 10.0973 7.30002 10 7.03335 10H6.16669L5.83335 9.2C5.6778 8.83333 5.43335 8.54178 5.10002 8.32533C4.76669 8.10844 4.40002 8 4.00002 8C3.44446 8 2.97224 8.19178 2.58335 8.57533C2.19446 8.95844 2.00002 9.43333 2.00002 10C2.00002 10.5556 2.19446 11.0278 2.58335 11.4167C2.97224 11.8056 3.44446 12 4.00002 12ZM4.00002 13.3333C3.0778 13.3333 2.2918 13.0084 1.64202 12.3587C0.991798 11.7084 0.666687 10.9222 0.666687 10C0.666687 9.07778 0.991798 8.29156 1.64202 7.64133C2.2918 6.99156 3.0778 6.66667 4.00002 6.66667C4.66669 6.66667 5.27513 6.84711 5.82535 7.208C6.37513 7.56933 6.78335 8.05556 7.05002 8.66667C7.68335 8.68889 8.22224 8.92489 8.66669 9.37467C9.11113 9.82489 9.33335 10.3667 9.33335 11C9.33335 11.6444 9.10558 12.1944 8.65002 12.65C8.19447 13.1056 7.64446 13.3333 7.00002 13.3333H4.00002Z" fill="#1C1B1F"/>
</svg>
