<svg width="45" height="59" viewBox="0 0 45 59" fill="none" xmlns="http://www.w3.org/2000/svg">
<path d="M22.5 44.25C34.7193 44.25 44.625 34.3443 44.625 22.125C44.625 9.9057 34.7193 0 22.5 0C10.2807 0 0.375 9.9057 0.375 22.125C0.375 34.3443 10.2807 44.25 22.5 44.25Z" fill="#FBBC04"/>
<path d="M22.5 44.25C34.7193 44.25 44.625 34.3443 44.625 22.125C44.625 9.9057 34.7193 0 22.5 0C10.2807 0 0.375 9.9057 0.375 22.125C0.375 34.3443 10.2807 44.25 22.5 44.25Z" fill="url(#paint0_linear_103_122)"/>
<path d="M28.0312 59C37.1957 59 44.625 51.5707 44.625 42.4062C44.625 33.2418 37.1957 25.8125 28.0312 25.8125C18.8668 25.8125 11.4375 33.2418 11.4375 42.4062C11.4375 51.5707 18.8668 59 28.0312 59Z" fill="url(#paint1_linear_103_122)"/>
<path fill-rule="evenodd" clip-rule="evenodd" d="M28.0312 59C28.0312 55.3326 26.5744 51.8153 23.9811 49.222C21.3878 46.6288 17.8706 45.1719 14.2031 45.1719C10.5357 45.1719 7.01844 46.6288 4.42516 49.222C1.83189 51.8153 0.375 55.3326 0.375 59C0.395281 58.9687 28.0386 58.9779 28.0312 59Z" fill="#9D9D9D"/>
<defs>
<linearGradient id="paint0_linear_103_122" x1="0.375" y1="0" x2="30.4026" y2="33.6437" gradientUnits="userSpaceOnUse">
<stop stop-color="#FCD35C"/>
<stop offset="1" stop-color="#FBBC04"/>
</linearGradient>
<linearGradient id="paint1_linear_103_122" x1="18.9024" y1="31.5855" x2="44.625" y2="64.0452" gradientUnits="userSpaceOnUse">
<stop stop-color="#D2D2D2" stop-opacity="0.77"/>
<stop offset="1" stop-color="#A7A7A7"/>
</linearGradient>
</defs>
</svg>
